<svg width="41" height="31" viewBox="0 0 41 31" fill="none" xmlns="http://www.w3.org/2000/svg">
<path d="M7.90325 4.6V27H5.59925V6.648H0.31925V4.6H7.90325ZM21.3538 0.0559978H23.4338L12.8738 30.2H10.7937L21.3538 0.0559978ZM36.0898 15.256C37.4978 15.7253 38.5751 16.4293 39.3218 17.368C40.0898 18.3067 40.4738 19.4373 40.4738 20.76C40.4738 22.0613 40.1218 23.2027 39.4178 24.184C38.7138 25.144 37.7004 25.8907 36.3778 26.424C35.0764 26.936 33.5404 27.192 31.7698 27.192C29.0818 27.192 26.9698 26.616 25.4338 25.464C23.8978 24.312 23.1298 22.744 23.1298 20.76C23.1298 19.416 23.4924 18.2853 24.2178 17.368C24.9644 16.4293 26.0418 15.7253 27.4498 15.256C26.2978 14.808 25.4231 14.168 24.8258 13.336C24.2284 12.4827 23.9298 11.48 23.9298 10.328C23.9298 8.51467 24.6338 7.07467 26.0418 6.008C27.4711 4.94133 29.3804 4.408 31.7698 4.408C33.3484 4.408 34.7244 4.65333 35.8978 5.144C37.0924 5.61333 38.0204 6.296 38.6818 7.192C39.3431 8.088 39.6737 9.13333 39.6737 10.328C39.6737 11.48 39.3644 12.4827 38.7458 13.336C38.1271 14.168 37.2418 14.808 36.0898 15.256ZM26.2338 10.392C26.2338 11.6293 26.7244 12.6107 27.7058 13.336C28.6871 14.0613 30.0418 14.424 31.7698 14.424C33.4978 14.424 34.8524 14.0613 35.8338 13.336C36.8364 12.6107 37.3378 11.64 37.3378 10.424C37.3378 9.16533 36.8258 8.17333 35.8018 7.448C34.7991 6.72267 33.4551 6.36 31.7698 6.36C30.0631 6.36 28.7084 6.72267 27.7058 7.448C26.7244 8.17333 26.2338 9.15467 26.2338 10.392ZM31.7698 25.24C33.7538 25.24 35.3004 24.8347 36.4098 24.024C37.5404 23.2133 38.1058 22.1147 38.1058 20.728C38.1058 19.3413 37.5404 18.2533 36.4098 17.464C35.3004 16.6533 33.7538 16.248 31.7698 16.248C29.8071 16.248 28.2604 16.6533 27.1298 17.464C26.0204 18.2533 25.4658 19.3413 25.4658 20.728C25.4658 22.136 26.0204 23.2453 27.1298 24.056C28.2391 24.8453 29.7858 25.24 31.7698 25.24Z" fill="white"/>
</svg>
